<?xml version="1.0" encoding="UTF-8"?>
<!DOCTYPE svg PUBLIC "-//W3C//DTD SVG 1.1//EN" "http://www.w3.org/Graphics/SVG/1.1/DTD/svg11.dtd">
<svg xmlns="http://www.w3.org/2000/svg" version="1.1" width="500px" height="500px" style="shape-rendering:geometricPrecision; text-rendering:geometricPrecision; image-rendering:optimizeQuality; fill-rule:evenodd; clip-rule:evenodd" xmlns:xlink="http://www.w3.org/1999/xlink">
<g><path style="opacity:1" fill="#fefefd" d="M -0.5,-0.5 C 166.167,-0.5 332.833,-0.5 499.5,-0.5C 499.5,166.167 499.5,332.833 499.5,499.5C 332.833,499.5 166.167,499.5 -0.5,499.5C -0.5,332.833 -0.5,166.167 -0.5,-0.5 Z"/></g>
<g><path style="opacity:1" fill="#28211f" d="M 207.5,146.5 C 205.864,150.21 205.198,154.21 205.5,158.5C 203.988,163.929 203.321,169.596 203.5,175.5C 200.907,174.246 198.573,172.58 196.5,170.5C 194.573,167.233 192.239,164.233 189.5,161.5C 192.601,138.428 197.601,115.761 204.5,93.5C 206.639,86.2765 208.473,78.9431 210,71.5C 213.293,65.388 218.127,63.888 224.5,67C 226.995,69.2187 227.995,72.052 227.5,75.5C 227.333,77.5 227.167,79.5 227,81.5C 220.027,103.065 213.527,124.731 207.5,146.5 Z"/></g>
<g><path style="opacity:1" fill="#28211f" d="M 302.5,117.5 C 305.9,131.7 308.567,146.034 310.5,160.5C 310.808,162.924 310.474,165.257 309.5,167.5C 306.412,170.601 303.078,173.267 299.5,175.5C 298.167,175.5 296.833,175.5 295.5,175.5C 295.191,164.743 294.024,154.076 292,143.5C 284.212,120.981 277.378,98.3139 271.5,75.5C 272.333,67.497 276.666,64.3303 284.5,66C 286.286,66.7845 287.786,67.9512 289,69.5C 293.073,85.7424 297.573,101.742 302.5,117.5 Z"/></g>
<g><path style="opacity:1" fill="#28211f" d="M 286.5,160.5 C 286.5,162.5 286.5,164.5 286.5,166.5C 280.5,166.5 274.5,166.5 268.5,166.5C 268.666,162.486 268.499,158.486 268,154.5C 264.113,135.95 259.446,117.616 254,99.5C 252.243,90.9176 255.41,88.0843 263.5,91C 265.378,92.5429 266.878,94.3762 268,96.5C 273.306,111.058 278.306,125.724 283,140.5C 284.82,147.059 285.986,153.726 286.5,160.5 Z"/></g>
<g><path style="opacity:1" fill="#4c3e3b" d="M 322.5,98.5 C 321.71,99.6085 321.21,100.942 321,102.5C 320.346,101.304 319.846,101.304 319.5,102.5C 322.034,106.314 322.534,110.314 321,114.5C 320.667,114.167 320.333,113.833 320,113.5C 319.967,118.344 318.801,122.844 316.5,127C 317.458,128.147 317.125,129.147 315.5,130C 316.654,130.914 316.487,131.747 315,132.5C 314,129.833 313,127.167 312,124.5C 311.667,125.833 311.333,127.167 311,128.5C 310.722,127.584 310.222,126.918 309.5,126.5C 308.204,120.295 306.537,114.295 304.5,108.5C 303.66,103.471 302.66,98.4713 301.5,93.5C 302.026,85.8111 306.026,82.9778 313.5,85C 318.133,88.4397 321.133,92.9397 322.5,98.5 Z"/></g>
<g><path style="opacity:1" fill="#292220" d="M 240.5,119.5 C 239.076,121.515 238.41,123.848 238.5,126.5C 234.625,139.544 232.292,152.877 231.5,166.5C 225.167,166.5 218.833,166.5 212.5,166.5C 213.127,159.112 214.127,151.779 215.5,144.5C 216.924,142.485 217.59,140.152 217.5,137.5C 221.087,124.988 225.253,112.655 230,100.5C 230.947,94.5573 234.28,90.8906 240,89.5C 246.04,90.3148 248.04,93.6481 246,99.5C 243.861,106.054 242.028,112.721 240.5,119.5 Z"/></g>
<g><path style="opacity:1" fill="#bc342f" d="M 196.5,86.5 C 198.419,90.2686 198.919,94.2686 198,98.5C 196.797,102.671 195.297,106.671 193.5,110.5C 194.702,104.492 196.035,98.4922 197.5,92.5C 197.24,90.8129 196.573,89.3129 195.5,88C 193.762,88.1383 192.095,88.6383 190.5,89.5C 190.5,88.1667 190.5,86.8333 190.5,85.5C 188.435,85.5172 186.435,85.8505 184.5,86.5C 184.611,85.8826 184.944,85.3826 185.5,85C 189.433,84.1156 193.099,84.6156 196.5,86.5 Z"/></g>
<g><path style="opacity:1" fill="#cd1a19" d="M 193.5,110.5 C 192.104,118.751 190.104,126.751 187.5,134.5C 187.309,129.101 187.809,123.767 189,118.5C 189.333,118.833 189.667,119.167 190,119.5C 190.638,118.391 191.138,117.225 191.5,116C 187.774,112.348 186.441,108.014 187.5,103C 184.965,99.3074 183.798,95.1407 184,90.5C 182.956,91.6226 182.29,92.9559 182,94.5C 181.329,93.7476 180.496,93.4142 179.5,93.5C 180.028,90.3119 181.695,87.9786 184.5,86.5C 186.435,85.8505 188.435,85.5172 190.5,85.5C 190.5,86.8333 190.5,88.1667 190.5,89.5C 192.095,88.6383 193.762,88.1383 195.5,88C 196.573,89.3129 197.24,90.8129 197.5,92.5C 196.035,98.4922 194.702,104.492 193.5,110.5 Z"/></g>
<g><path style="opacity:1" fill="#554845" d="M 322.5,98.5 C 325.345,103.531 327.678,108.864 329.5,114.5C 329.337,116.857 329.503,119.19 330,121.5C 330.889,120.112 331.389,120.278 331.5,122C 330.902,123.301 329.902,124.135 328.5,124.5C 327.24,126.353 327.24,128.186 328.5,130C 326.699,130.317 326.366,130.984 327.5,132C 326.341,133.827 325.008,135.493 323.5,137C 323.493,138.583 323.826,140.249 324.5,142C 323.107,143.171 322.273,144.671 322,146.5C 321.333,145.167 320.667,145.167 320,146.5C 320.077,147.738 319.911,148.738 319.5,149.5C 316.72,144.129 316.053,144.462 317.5,150.5C 317.547,152.038 316.88,153.038 315.5,153.5C 313.686,144.48 311.686,135.48 309.5,126.5C 310.222,126.918 310.722,127.584 311,128.5C 311.333,127.167 311.667,125.833 312,124.5C 313,127.167 314,129.833 315,132.5C 316.487,131.747 316.654,130.914 315.5,130C 317.125,129.147 317.458,128.147 316.5,127C 318.801,122.844 319.967,118.344 320,113.5C 320.333,113.833 320.667,114.167 321,114.5C 322.534,110.314 322.034,106.314 319.5,102.5C 319.846,101.304 320.346,101.304 321,102.5C 321.21,100.942 321.71,99.6085 322.5,98.5 Z"/></g>
<g><path style="opacity:1" fill="#e94443" d="M 171.5,110.5 C 171.59,116.239 169.59,120.906 165.5,124.5C 166.988,119.533 168.988,114.866 171.5,110.5 Z"/></g>
<g><path style="opacity:1" fill="#e11d1c" d="M 187.5,134.5 C 186.996,139.202 186.329,143.869 185.5,148.5C 184.232,150.905 183.565,153.572 183.5,156.5C 183.795,158.735 183.461,160.735 182.5,162.5C 182.428,153.27 183.761,144.27 186.5,135.5C 184.849,132.383 183.682,129.049 183,125.5C 182.333,124.167 181.333,123.167 180,122.5C 179.405,121.101 179.572,119.768 180.5,118.5C 178.949,115.641 177.949,112.641 177.5,109.5C 182.532,108.465 182.365,107.131 177,105.5C 176.167,105.667 175.333,105.833 174.5,106C 174.026,107.729 173.026,108.895 171.5,109.5C 173.99,104 176.656,98.6667 179.5,93.5C 180.496,93.4142 181.329,93.7476 182,94.5C 182.29,92.9559 182.956,91.6226 184,90.5C 183.798,95.1407 184.965,99.3074 187.5,103C 186.441,108.014 187.774,112.348 191.5,116C 191.138,117.225 190.638,118.391 190,119.5C 189.667,119.167 189.333,118.833 189,118.5C 187.809,123.767 187.309,129.101 187.5,134.5 Z"/></g>
<g><path style="opacity:1" fill="#eeedec" d="M 304.5,108.5 C 306.537,114.295 308.204,120.295 309.5,126.5C 311.686,135.48 313.686,144.48 315.5,153.5C 316.679,160.777 317.345,168.11 317.5,175.5C 316.081,176.451 314.415,176.784 312.5,176.5C 312.802,173.941 312.468,171.607 311.5,169.5C 311.81,166.287 311.477,163.287 310.5,160.5C 308.567,146.034 305.9,131.7 302.5,117.5C 304.265,114.877 304.932,111.877 304.5,108.5 Z"/></g>
<g><path style="opacity:1" fill="#f5ebeb" d="M 196.5,86.5 C 197.496,86.4142 198.329,86.7476 199,87.5C 200.522,89.7409 201.855,92.0742 203,94.5C 203.383,93.944 203.883,93.6107 204.5,93.5C 197.601,115.761 192.601,138.428 189.5,161.5C 188.778,161.918 188.278,162.584 188,163.5C 187.503,166.146 187.336,168.813 187.5,171.5C 187.5,172.833 187.5,174.167 187.5,175.5C 185.833,175.5 184.167,175.5 182.5,175.5C 182.5,172.5 182.5,169.5 182.5,166.5C 182.5,165.167 182.5,163.833 182.5,162.5C 183.461,160.735 183.795,158.735 183.5,156.5C 185.04,154.162 185.706,151.495 185.5,148.5C 186.329,143.869 186.996,139.202 187.5,134.5C 190.104,126.751 192.104,118.751 193.5,110.5C 195.297,106.671 196.797,102.671 198,98.5C 198.919,94.2686 198.419,90.2686 196.5,86.5 Z"/></g>
<g><path style="opacity:1" fill="#a29c9d" d="M 240.5,119.5 C 240.59,122.152 239.924,124.485 238.5,126.5C 238.41,123.848 239.076,121.515 240.5,119.5 Z"/></g>
<g><path style="opacity:1" fill="#f3191a" d="M 182.5,162.5 C 182.5,163.833 182.5,165.167 182.5,166.5C 181.521,169.625 181.187,172.958 181.5,176.5C 182.828,177.507 183.828,178.84 184.5,180.5C 182.244,185.793 180.744,185.46 180,179.5C 179.259,178.359 178.425,178.359 177.5,179.5C 176.548,177.955 176.215,176.288 176.5,174.5C 175.5,174.5 174.5,174.5 173.5,174.5C 174.004,170.493 174.17,166.493 174,162.5C 172.059,158.446 171.225,158.78 171.5,163.5C 170.167,163.5 168.833,163.5 167.5,163.5C 167.814,158.641 165.814,155.308 161.5,153.5C 160.962,151.883 160.629,150.216 160.5,148.5C 161.095,141.35 162.429,134.35 164.5,127.5C 164.557,126.391 164.89,125.391 165.5,124.5C 169.59,120.906 171.59,116.239 171.5,110.5C 171.5,110.167 171.5,109.833 171.5,109.5C 173.026,108.895 174.026,107.729 174.5,106C 175.333,105.833 176.167,105.667 177,105.5C 182.365,107.131 182.532,108.465 177.5,109.5C 177.949,112.641 178.949,115.641 180.5,118.5C 179.572,119.768 179.405,121.101 180,122.5C 181.333,123.167 182.333,124.167 183,125.5C 183.682,129.049 184.849,132.383 186.5,135.5C 183.761,144.27 182.428,153.27 182.5,162.5 Z"/></g>
<g><path style="opacity:1" fill="#e84b4c" d="M 164.5,127.5 C 162.429,134.35 161.095,141.35 160.5,148.5C 159.461,144.658 159.461,140.658 160.5,136.5C 161.594,133.318 162.928,130.318 164.5,127.5 Z"/></g>
<g><path style="opacity:1" fill="#5b504c" d="M 329.5,114.5 C 334.228,123.637 337.562,133.303 339.5,143.5C 337.753,154.338 333.753,164.338 327.5,173.5C 324.123,173.959 320.789,174.626 317.5,175.5C 317.345,168.11 316.679,160.777 315.5,153.5C 316.88,153.038 317.547,152.038 317.5,150.5C 316.053,144.462 316.72,144.129 319.5,149.5C 319.911,148.738 320.077,147.738 320,146.5C 320.667,145.167 321.333,145.167 322,146.5C 322.273,144.671 323.107,143.171 324.5,142C 323.826,140.249 323.493,138.583 323.5,137C 325.008,135.493 326.341,133.827 327.5,132C 326.366,130.984 326.699,130.317 328.5,130C 327.24,128.186 327.24,126.353 328.5,124.5C 329.902,124.135 330.902,123.301 331.5,122C 331.389,120.278 330.889,120.112 330,121.5C 329.503,119.19 329.337,116.857 329.5,114.5 Z"/></g>
<g><path style="opacity:1" fill="#787373" d="M 217.5,137.5 C 217.59,140.152 216.924,142.485 215.5,144.5C 215.41,141.848 216.076,139.515 217.5,137.5 Z"/></g>
<g><path style="opacity:1" fill="#f27e82" d="M 185.5,148.5 C 185.706,151.495 185.04,154.162 183.5,156.5C 183.565,153.572 184.232,150.905 185.5,148.5 Z"/></g>
<g><path style="opacity:1" fill="#ac1816" d="M 138.5,145.5 C 146.414,149.079 152.414,154.745 156.5,162.5C 152.79,157.651 148.79,157.485 144.5,162C 144.833,162.333 145.167,162.667 145.5,163C 143.808,167.074 142.308,171.24 141,175.5C 139.757,177.833 138.091,178.5 136,177.5C 135.506,179.134 135.34,180.801 135.5,182.5C 134.566,181.432 134.232,180.099 134.5,178.5C 134.59,175.848 133.924,173.515 132.5,171.5C 132.768,169.901 132.434,168.568 131.5,167.5C 131.59,164.848 130.924,162.515 129.5,160.5C 128.669,156.524 128.503,152.524 129,148.5C 131.642,145.971 134.808,144.971 138.5,145.5 Z"/></g>
<g><path style="opacity:1" fill="#bbbab7" d="M 207.5,146.5 C 207.802,150.79 207.136,154.79 205.5,158.5C 205.198,154.21 205.864,150.21 207.5,146.5 Z"/></g>
<g><path style="opacity:1" fill="#be1716" d="M 156.5,162.5 C 158.664,164.822 160.331,167.489 161.5,170.5C 160.167,170.5 158.833,170.5 157.5,170.5C 157.762,169.022 157.429,167.689 156.5,166.5C 151.462,177.072 147.129,187.906 143.5,199C 144.517,200.049 144.684,201.216 144,202.5C 143.085,203.328 142.419,204.328 142,205.5C 140.837,203.715 140.17,201.715 140,199.5C 139.648,201.247 139.148,202.914 138.5,204.5C 137.015,197.366 136.015,190.033 135.5,182.5C 135.34,180.801 135.506,179.134 136,177.5C 138.091,178.5 139.757,177.833 141,175.5C 142.308,171.24 143.808,167.074 145.5,163C 145.167,162.667 144.833,162.333 144.5,162C 148.79,157.485 152.79,157.651 156.5,162.5 Z"/></g>
<g><path style="opacity:1" fill="#42a84a" d="M 242.5,156.5 C 247.167,156.5 251.833,156.5 256.5,156.5C 256.5,163.833 256.5,171.167 256.5,178.5C 263.167,178.5 269.833,178.5 276.5,178.5C 276.5,182.833 276.5,187.167 276.5,191.5C 269.416,190.874 262.75,191.541 256.5,193.5C 255.509,199.979 255.176,206.646 255.5,213.5C 251.5,213.5 247.5,213.5 243.5,213.5C 243.825,206.313 243.491,199.313 242.5,192.5C 236.021,191.509 229.354,191.176 222.5,191.5C 222.5,187.167 222.5,182.833 222.5,178.5C 229.167,178.5 235.833,178.5 242.5,178.5C 242.5,171.167 242.5,163.833 242.5,156.5 Z"/></g>
<g><path style="opacity:1" fill="#bbe4c1" d="M 242.5,156.5 C 247.305,155.513 252.305,155.179 257.5,155.5C 257.5,162.833 257.5,170.167 257.5,177.5C 264.354,177.176 271.021,177.509 277.5,178.5C 277.167,178.5 276.833,178.5 276.5,178.5C 269.833,178.5 263.167,178.5 256.5,178.5C 256.5,171.167 256.5,163.833 256.5,156.5C 251.833,156.5 247.167,156.5 242.5,156.5 Z"/></g>
<g><path style="opacity:1" fill="#b63434" d="M 189.5,161.5 C 192.239,164.233 194.573,167.233 196.5,170.5C 194.186,168.523 191.853,166.523 189.5,164.5C 188.832,166.969 188.165,169.302 187.5,171.5C 187.336,168.813 187.503,166.146 188,163.5C 188.278,162.584 188.778,161.918 189.5,161.5 Z"/></g>
<g><path style="opacity:1" fill="#569e60" d="M 351.5,151.5 C 350.345,154.475 348.678,157.142 346.5,159.5C 345.109,161.96 343.942,164.626 343,167.5C 341.989,168.337 340.822,168.67 339.5,168.5C 341.952,161.719 345.952,156.052 351.5,151.5 Z"/></g>
<g><path style="opacity:1" fill="#e8b9b6" d="M 129.5,160.5 C 130.924,162.515 131.59,164.848 131.5,167.5C 130.076,165.485 129.41,163.152 129.5,160.5 Z"/></g>
<g><path style="opacity:1" fill="#a6a5a4" d="M 286.5,160.5 C 287.468,162.607 287.802,164.941 287.5,167.5C 280.978,167.823 274.645,167.49 268.5,166.5C 274.5,166.5 280.5,166.5 286.5,166.5C 286.5,164.5 286.5,162.5 286.5,160.5 Z"/></g>
<g><path style="opacity:1" fill="#4c4140" d="M 310.5,160.5 C 311.477,163.287 311.81,166.287 311.5,169.5C 311.5,171.5 311.5,173.5 311.5,175.5C 307.5,175.5 303.5,175.5 299.5,175.5C 303.078,173.267 306.412,170.601 309.5,167.5C 310.474,165.257 310.808,162.924 310.5,160.5 Z"/></g>
<g><path style="opacity:1" fill="#ad949d" d="M 205.5,158.5 C 204.815,166.816 204.482,175.149 204.5,183.5C 204.167,183.5 203.833,183.5 203.5,183.5C 203.5,180.833 203.5,178.167 203.5,175.5C 203.321,169.596 203.988,163.929 205.5,158.5 Z"/></g>
<g><path style="opacity:1" fill="#f37a7d" d="M 182.5,166.5 C 182.5,169.5 182.5,172.5 182.5,175.5C 184.167,175.5 185.833,175.5 187.5,175.5C 187.5,175.833 187.5,176.167 187.5,176.5C 185.5,176.5 183.5,176.5 181.5,176.5C 181.187,172.958 181.521,169.625 182.5,166.5 Z"/></g>
<g><path style="opacity:1" fill="#f31a1b" d="M 196.5,170.5 C 198.573,172.58 200.907,174.246 203.5,175.5C 203.5,178.167 203.5,180.833 203.5,183.5C 203.413,188.226 204.746,192.393 207.5,196C 206.352,197.726 205.185,197.559 204,195.5C 203.333,196.167 203.333,196.833 204,197.5C 208.564,200.075 213.064,202.742 217.5,205.5C 216.817,207.176 215.483,207.843 213.5,207.5C 210.94,204.78 207.94,202.614 204.5,201C 200.296,200.319 196.296,199.152 192.5,197.5C 190.919,195.858 190.253,193.858 190.5,191.5C 185.167,192.167 182.833,189.833 183.5,184.5C 184.873,184.657 186.207,184.49 187.5,184C 185.717,182.933 185.217,181.433 186,179.5C 186.333,179.833 186.667,180.167 187,180.5C 187.49,179.207 187.657,177.873 187.5,176.5C 187.5,176.167 187.5,175.833 187.5,175.5C 187.5,174.167 187.5,172.833 187.5,171.5C 188.165,169.302 188.832,166.969 189.5,164.5C 191.853,166.523 194.186,168.523 196.5,170.5 Z"/></g>
<g><path style="opacity:1" fill="#cf1a19" d="M 161.5,170.5 C 165.003,175.502 168.003,180.835 170.5,186.5C 169.542,186.047 168.708,185.381 168,184.5C 166.855,185.684 165.688,185.684 164.5,184.5C 165.768,183.213 165.435,182.213 163.5,181.5C 164.485,179.902 164.651,178.235 164,176.5C 162.325,175.405 161.158,173.905 160.5,172C 159.517,171.409 158.85,171.743 158.5,173C 161.144,175.391 161.144,177.725 158.5,180C 158.957,180.414 159.291,180.914 159.5,181.5C 157.437,184.388 155.603,187.388 154,190.5C 152.299,201.014 148.633,210.681 143,219.5C 142.667,218.833 142.333,218.167 142,217.5C 141.325,224.528 141.492,231.528 142.5,238.5C 140.837,236.562 140.171,234.228 140.5,231.5C 140.624,225.931 139.957,220.598 138.5,215.5C 138.5,211.833 138.5,208.167 138.5,204.5C 139.148,202.914 139.648,201.247 140,199.5C 140.17,201.715 140.837,203.715 142,205.5C 142.419,204.328 143.085,203.328 144,202.5C 144.684,201.216 144.517,200.049 143.5,199C 147.129,187.906 151.462,177.072 156.5,166.5C 157.429,167.689 157.762,169.022 157.5,170.5C 158.833,170.5 160.167,170.5 161.5,170.5 Z"/></g>
<g><path style="opacity:1" fill="#bab6b5" d="M 311.5,169.5 C 312.468,171.607 312.802,173.941 312.5,176.5C 314.415,176.784 316.081,176.451 317.5,175.5C 320.789,174.626 324.123,173.959 327.5,173.5C 324.042,180.761 319.375,187.094 313.5,192.5C 308.375,186.257 302.375,180.923 295.5,176.5C 295.5,176.167 295.5,175.833 295.5,175.5C 296.833,175.5 298.167,175.5 299.5,175.5C 303.5,175.5 307.5,175.5 311.5,175.5C 311.5,173.5 311.5,171.5 311.5,169.5 Z"/></g>
<g><path style="opacity:1" fill="#c56d6a" d="M 132.5,171.5 C 133.924,173.515 134.59,175.848 134.5,178.5C 133.076,176.485 132.41,174.152 132.5,171.5 Z"/></g>
<g><path style="opacity:1" fill="#ef2728" d="M 161.5,153.5 C 165.814,155.308 167.814,158.641 167.5,163.5C 168.833,163.5 170.167,163.5 171.5,163.5C 171.225,158.78 172.059,158.446 174,162.5C 174.17,166.493 174.004,170.493 173.5,174.5C 174.5,174.5 175.5,174.5 176.5,174.5C 176.215,176.288 176.548,177.955 177.5,179.5C 178.425,178.359 179.259,178.359 180,179.5C 180.744,185.46 182.244,185.793 184.5,180.5C 183.828,178.84 182.828,177.507 181.5,176.5C 183.5,176.5 185.5,176.5 187.5,176.5C 187.657,177.873 187.49,179.207 187,180.5C 186.667,180.167 186.333,179.833 186,179.5C 185.217,181.433 185.717,182.933 187.5,184C 186.207,184.49 184.873,184.657 183.5,184.5C 182.833,189.833 185.167,192.167 190.5,191.5C 190.253,193.858 190.919,195.858 192.5,197.5C 185.901,194.069 180.735,189.069 177,182.5C 171.299,173.097 166.132,163.43 161.5,153.5 Z"/></g>
<g><path style="opacity:1" fill="#a0caa4" d="M 367.5,170.5 C 367.706,173.495 367.04,176.162 365.5,178.5C 365.565,175.572 366.232,172.905 367.5,170.5 Z"/></g>
<g><path style="opacity:1" fill="#e7f8e9" d="M 337.5,169.5 C 334.344,175.811 331.178,182.145 328,188.5C 326.334,191.331 324.168,193.664 321.5,195.5C 321.5,194.167 321.5,192.833 321.5,191.5C 322.5,191.5 323.5,191.5 324.5,191.5C 326.403,189.049 327.736,186.216 328.5,183C 327.639,180.679 328.639,179.513 331.5,179.5C 332.976,176.339 333.976,173.005 334.5,169.5C 335.5,169.5 336.5,169.5 337.5,169.5 Z"/></g>
<g><path style="opacity:1" fill="#dc1818" d="M 164.5,184.5 C 162.541,197.499 158.207,209.666 151.5,221C 152.669,225.004 152.669,229.004 151.5,233C 150.324,234.674 148.99,236.174 147.5,237.5C 148.074,239.059 148.74,240.559 149.5,242C 148.692,242.308 148.025,242.808 147.5,243.5C 150.319,245.639 152.319,248.306 153.5,251.5C 148.736,248.072 145.07,243.738 142.5,238.5C 141.492,231.528 141.325,224.528 142,217.5C 142.333,218.167 142.667,218.833 143,219.5C 148.633,210.681 152.299,201.014 154,190.5C 155.603,187.388 157.437,184.388 159.5,181.5C 159.291,180.914 158.957,180.414 158.5,180C 161.144,177.725 161.144,175.391 158.5,173C 158.85,171.743 159.517,171.409 160.5,172C 161.158,173.905 162.325,175.405 164,176.5C 164.651,178.235 164.485,179.902 163.5,181.5C 165.435,182.213 165.768,183.213 164.5,184.5 Z"/></g>
<g><path style="opacity:1" fill="#d4d2d1" d="M 295.5,176.5 C 302.375,180.923 308.375,186.257 313.5,192.5C 308.477,198.514 302.143,201.514 294.5,201.5C 293.206,199.12 292.206,196.62 291.5,194C 294.952,188.667 296.285,182.834 295.5,176.5 Z"/></g>
<g><path style="opacity:1" fill="#7ebf83" d="M 222.5,178.5 C 222.5,182.833 222.5,187.167 222.5,191.5C 229.354,191.176 236.021,191.509 242.5,192.5C 235.5,192.5 228.5,192.5 221.5,192.5C 221.181,187.637 221.514,182.97 222.5,178.5 Z"/></g>
<g><path style="opacity:1" fill="#87c38f" d="M 276.5,178.5 C 276.833,178.5 277.167,178.5 277.5,178.5C 277.5,183.167 277.5,187.833 277.5,192.5C 270.833,192.5 264.167,192.5 257.5,192.5C 257.825,200.019 257.492,207.352 256.5,214.5C 256.5,207.5 256.5,200.5 256.5,193.5C 262.75,191.541 269.416,190.874 276.5,191.5C 276.5,187.167 276.5,182.833 276.5,178.5 Z"/></g>
<g><path style="opacity:1" fill="#3a9841" d="M 346.5,159.5 C 347.931,160.082 349.264,160.915 350.5,162C 348.148,164.7 346.148,167.7 344.5,171C 345.33,172.465 345.496,173.965 345,175.5C 344.586,175.043 344.086,174.709 343.5,174.5C 340.935,180.436 340.268,186.269 341.5,192C 340.035,194.43 338.702,196.93 337.5,199.5C 336.833,199.167 336.167,198.833 335.5,198.5C 334.659,201.872 333.159,204.872 331,207.5C 330.757,214.476 328.924,220.976 325.5,227C 325.833,227.333 326.167,227.667 326.5,228C 324.391,233.274 322.058,238.441 319.5,243.5C 319.833,244.167 320.167,244.833 320.5,245.5C 319.302,248.728 317.969,251.895 316.5,255C 318.141,256.646 317.807,257.646 315.5,258C 316.059,258.725 316.392,259.558 316.5,260.5C 314.159,263.535 312.826,266.701 312.5,270C 313.272,271.221 314.272,272.221 315.5,273C 313.026,272.698 310.692,272.532 308.5,272.5C 307.749,273.376 307.249,274.376 307,275.5C 307.943,278.691 308.776,282.024 309.5,285.5C 308.481,290.189 307.481,294.856 306.5,299.5C 305.521,302.625 305.187,305.958 305.5,309.5C 288.5,309.5 271.5,309.5 254.5,309.5C 254.5,306.167 254.5,302.833 254.5,299.5C 255.477,302.287 255.81,305.287 255.5,308.5C 266.52,308.832 277.52,308.499 288.5,307.5C 287.675,306.614 286.675,306.281 285.5,306.5C 285.721,305.265 286.388,304.265 287.5,303.5C 286.588,301.012 287.588,299.345 290.5,298.5C 291.363,294.268 292.363,290.101 293.5,286C 293.167,285.667 292.833,285.333 292.5,285C 293.5,284.5 294.5,284 295.5,283.5C 297.171,279.988 298.338,276.321 299,272.5C 300.161,271.005 301.327,269.505 302.5,268C 302.095,267.055 301.428,266.388 300.5,266C 301.826,264.321 303.993,262.821 307,261.5C 306.207,258.842 306.373,256.175 307.5,253.5C 307.686,251.42 308.686,249.92 310.5,249C 309.315,246.213 309.982,243.88 312.5,242C 312.167,241.667 311.833,241.333 311.5,241C 312.227,239.601 312.727,238.101 313,236.5C 313.333,237.167 313.667,237.833 314,238.5C 316.571,228.345 319.738,218.512 323.5,209C 320.283,206.636 320.283,204.969 323.5,204C 324.46,202.581 325.293,201.081 326,199.5C 326.654,200.696 327.154,200.696 327.5,199.5C 326.672,198.585 325.672,197.919 324.5,197.5C 323.77,198.934 322.77,200.1 321.5,201C 322.34,202.666 321.84,202.833 320,201.5C 319.722,202.416 319.222,203.082 318.5,203.5C 317.167,203.833 315.833,204.167 314.5,204.5C 314.833,203.833 315.167,203.167 315.5,202.5C 317.5,200.167 319.5,197.833 321.5,195.5C 324.168,193.664 326.334,191.331 328,188.5C 331.178,182.145 334.344,175.811 337.5,169.5C 338.167,169.167 338.833,168.833 339.5,168.5C 340.822,168.67 341.989,168.337 343,167.5C 343.942,164.626 345.109,161.96 346.5,159.5 Z"/></g>
<g><path style="opacity:1" fill="#faf2f1" d="M 160.5,136.5 C 159.461,140.658 159.461,144.658 160.5,148.5C 160.629,150.216 160.962,151.883 161.5,153.5C 166.132,163.43 171.299,173.097 177,182.5C 180.735,189.069 185.901,194.069 192.5,197.5C 199.06,201.718 206.06,205.051 213.5,207.5C 216.021,209.019 218.521,210.686 221,212.5C 221.864,209.187 220.698,206.854 217.5,205.5C 217.5,205.167 217.5,204.833 217.5,204.5C 222.369,205.562 224.202,208.562 223,213.5C 222.173,214.662 221.34,215.829 220.5,217C 220.944,218.762 221.444,218.595 222,216.5C 222.374,217.416 222.874,218.25 223.5,219C 222.619,219.708 221.953,220.542 221.5,221.5C 220.391,221.443 219.391,221.11 218.5,220.5C 213.941,217.053 208.941,214.387 203.5,212.5C 189.532,207.525 178.532,198.858 170.5,186.5C 168.003,180.835 165.003,175.502 161.5,170.5C 160.331,167.489 158.664,164.822 156.5,162.5C 152.414,154.745 146.414,149.079 138.5,145.5C 141.607,145.351 144.607,145.851 147.5,147C 146.167,148 146.167,149 147.5,150C 149.441,150.743 151.274,150.576 153,149.5C 153.311,150.742 152.811,151.742 151.5,152.5C 152.941,152.637 154.274,153.637 155.5,155.5C 157.015,153.453 157.849,151.119 158,148.5C 158.333,144.167 158.667,139.833 159,135.5C 159.383,136.056 159.883,136.389 160.5,136.5 Z"/></g>
<g><path style="opacity:1" fill="#ee2d2c" d="M 203.5,183.5 C 203.833,183.5 204.167,183.5 204.5,183.5C 206.065,192.313 210.399,199.313 217.5,204.5C 217.5,204.833 217.5,205.167 217.5,205.5C 213.064,202.742 208.564,200.075 204,197.5C 203.333,196.833 203.333,196.167 204,195.5C 205.185,197.559 206.352,197.726 207.5,196C 204.746,192.393 203.413,188.226 203.5,183.5 Z"/></g>
<g><path style="opacity:1" fill="#3c9f43" d="M 285.5,306.5 C 280.968,306.931 276.635,306.431 272.5,305C 275.167,304.667 277.833,304.333 280.5,304C 278.941,303.02 277.274,302.187 275.5,301.5C 277.078,300.928 278.578,300.594 280,300.5C 281.468,294.059 283.468,287.392 286,280.5C 286.903,279.299 288.069,278.465 289.5,278C 288.536,275.731 289.202,273.898 291.5,272.5C 292.733,268.667 292.733,264.833 291.5,261C 291.905,260.055 292.572,259.388 293.5,259C 293.167,258.667 292.833,258.333 292.5,258C 294,256.885 295.667,256.052 297.5,255.5C 297.97,247.95 299.136,240.617 301,233.5C 302.011,234.337 303.178,234.67 304.5,234.5C 304.586,232.323 305.253,230.323 306.5,228.5C 305.404,226.487 305.737,224.654 307.5,223C 307.265,222.127 306.931,221.293 306.5,220.5C 308.006,219.253 309.506,219.253 311,220.5C 311.59,217.019 312.757,213.853 314.5,211C 314.167,210.667 313.833,210.333 313.5,210C 315.817,208.218 317.484,206.051 318.5,203.5C 319.222,203.082 319.722,202.416 320,201.5C 321.84,202.833 322.34,202.666 321.5,201C 322.77,200.1 323.77,198.934 324.5,197.5C 325.672,197.919 326.672,198.585 327.5,199.5C 327.154,200.696 326.654,200.696 326,199.5C 325.293,201.081 324.46,202.581 323.5,204C 320.283,204.969 320.283,206.636 323.5,209C 319.738,218.512 316.571,228.345 314,238.5C 313.667,237.833 313.333,237.167 313,236.5C 312.727,238.101 312.227,239.601 311.5,241C 311.833,241.333 312.167,241.667 312.5,242C 309.982,243.88 309.315,246.213 310.5,249C 308.686,249.92 307.686,251.42 307.5,253.5C 306.373,256.175 306.207,258.842 307,261.5C 303.993,262.821 301.826,264.321 300.5,266C 301.428,266.388 302.095,267.055 302.5,268C 301.327,269.505 300.161,271.005 299,272.5C 298.338,276.321 297.171,279.988 295.5,283.5C 294.5,284 293.5,284.5 292.5,285C 292.833,285.333 293.167,285.667 293.5,286C 292.363,290.101 291.363,294.268 290.5,298.5C 287.588,299.345 286.588,301.012 287.5,303.5C 286.388,304.265 285.721,305.265 285.5,306.5 Z"/></g>
<g><path style="opacity:1" fill="#32853b" d="M 367.5,170.5 C 366.232,172.905 365.565,175.572 365.5,178.5C 362.339,198.467 359.506,218.467 357,238.5C 348.938,249.396 339.438,258.73 328.5,266.5C 328.178,264.278 328.845,262.444 330.5,261C 328.646,256.093 330.313,252.926 335.5,251.5C 334.624,250.749 333.624,250.249 332.5,250C 334.98,246.913 335.98,243.58 335.5,240C 338.77,235.13 340.604,229.63 341,223.5C 344.696,217.745 347.03,211.412 348,204.5C 348.923,203.241 349.757,201.908 350.5,200.5C 351.167,201.5 351.833,202.5 352.5,203.5C 352.833,203.333 353.167,203.167 353.5,203C 352.939,201.324 351.939,199.991 350.5,199C 354.397,190.546 356.397,181.379 356.5,171.5C 360.377,171.517 361.043,170.351 358.5,168C 360.053,166.903 361.386,165.57 362.5,164C 361.833,161 361.167,158 360.5,155C 361.532,152.126 363.532,150.626 366.5,150.5C 366.5,149.5 366.5,148.5 366.5,147.5C 364.076,147.192 361.743,147.526 359.5,148.5C 359.833,149.167 360.167,149.833 360.5,150.5C 358.429,151.976 357.429,153.976 357.5,156.5C 355.897,156.688 354.563,156.188 353.5,155C 356.188,154.218 357.188,152.718 356.5,150.5C 354.929,151.309 353.262,151.643 351.5,151.5C 351.953,150.542 352.619,149.708 353.5,149C 356.747,147.541 360.08,146.374 363.5,145.5C 370.577,146.446 373.077,150.446 371,157.5C 368.748,161.505 367.581,165.838 367.5,170.5 Z"/></g>
<g><path style="opacity:1" fill="#e73838" d="M 192.5,197.5 C 196.296,199.152 200.296,200.319 204.5,201C 207.94,202.614 210.94,204.78 213.5,207.5C 206.06,205.051 199.06,201.718 192.5,197.5 Z"/></g>
<g><path style="opacity:1" fill="#5baa67" d="M 242.5,192.5 C 243.491,199.313 243.825,206.313 243.5,213.5C 247.5,213.5 251.5,213.5 255.5,213.5C 255.176,206.646 255.509,199.979 256.5,193.5C 256.5,200.5 256.5,207.5 256.5,214.5C 251.833,214.5 247.167,214.5 242.5,214.5C 242.5,207.167 242.5,199.833 242.5,192.5 Z"/></g>
<g><path style="opacity:1" fill="#ef1b1b" d="M 164.5,184.5 C 165.688,185.684 166.855,185.684 168,184.5C 168.708,185.381 169.542,186.047 170.5,186.5C 178.532,198.858 189.532,207.525 203.5,212.5C 206.065,213.992 208.065,216.158 209.5,219C 211.5,219.833 213.5,220.667 215.5,221.5C 214.095,223.655 212.762,225.821 211.5,228C 212.337,229.011 212.67,230.178 212.5,231.5C 211.89,232.391 211.557,233.391 211.5,234.5C 207.01,241.474 203.01,248.807 199.5,256.5C 195.135,263.854 190.801,271.187 186.5,278.5C 185.078,277.075 183.411,276.075 181.5,275.5C 178.94,273.727 176.607,271.727 174.5,269.5C 173.089,267.086 171.089,265.419 168.5,264.5C 166.919,262.858 166.253,260.858 166.5,258.5C 165.127,258.657 163.793,258.49 162.5,258C 159.906,255.235 156.906,253.068 153.5,251.5C 152.319,248.306 150.319,245.639 147.5,243.5C 148.025,242.808 148.692,242.308 149.5,242C 148.74,240.559 148.074,239.059 147.5,237.5C 148.99,236.174 150.324,234.674 151.5,233C 152.669,229.004 152.669,225.004 151.5,221C 158.207,209.666 162.541,197.499 164.5,184.5 Z"/></g>
<g><path style="opacity:1" fill="#d5433f" d="M 217.5,205.5 C 220.698,206.854 221.864,209.187 221,212.5C 218.521,210.686 216.021,209.019 213.5,207.5C 215.483,207.843 216.817,207.176 217.5,205.5 Z"/></g>
<g><path style="opacity:1" fill="#f6181b" d="M 175.5,209.5 C 176.552,209.351 177.552,209.517 178.5,210C 177.167,210.667 177.167,211.333 178.5,212C 179.449,212.617 180.282,212.451 181,211.5C 182.674,212.676 184.174,214.01 185.5,215.5C 186.396,214.494 187.062,214.494 187.5,215.5C 186.271,216.281 184.938,216.781 183.5,217C 184.833,218.333 184.833,219.667 183.5,221C 184.613,224.588 186.28,225.088 188.5,222.5C 185.798,216.874 186.798,216.207 191.5,220.5C 190.691,222.071 190.357,223.738 190.5,225.5C 192.5,225.5 194.5,225.5 196.5,225.5C 196.351,224.448 196.517,223.448 197,222.5C 197.29,224.044 197.956,225.377 199,226.5C 200.049,225.483 201.216,225.316 202.5,226C 201.187,228.326 199.187,229.659 196.5,230C 198.759,231.935 199.759,234.435 199.5,237.5C 201.199,237.34 202.866,237.506 204.5,238C 203.076,240.101 201.742,242.267 200.5,244.5C 199.522,244.023 198.689,243.357 198,242.5C 197.982,246.071 196.315,248.404 193,249.5C 190.827,246.723 190.327,246.89 191.5,250C 190.111,252.173 188.778,254.339 187.5,256.5C 184.437,255.565 181.27,255.565 178,256.5C 177.692,257.308 177.192,257.975 176.5,258.5C 174.398,255.295 172.565,251.962 171,248.5C 169.578,248.406 168.078,248.072 166.5,247.5C 168.023,245.414 167.69,243.748 165.5,242.5C 164.416,243.665 163.583,244.998 163,246.5C 160.755,243.614 160.421,240.281 162,236.5C 164.882,231.636 167.715,226.803 170.5,222C 170.355,221.228 170.022,220.561 169.5,220C 171.862,216.671 173.862,213.171 175.5,209.5 Z"/></g>
<g><path style="opacity:1" fill="#37903e" d="M 328.5,266.5 C 325.026,269.802 321.359,272.968 317.5,276C 314.217,278.772 311.55,281.939 309.5,285.5C 308.776,282.024 307.943,278.691 307,275.5C 307.249,274.376 307.749,273.376 308.5,272.5C 310.692,272.532 313.026,272.698 315.5,273C 314.272,272.221 313.272,271.221 312.5,270C 312.826,266.701 314.159,263.535 316.5,260.5C 316.392,259.558 316.059,258.725 315.5,258C 317.807,257.646 318.141,256.646 316.5,255C 317.969,251.895 319.302,248.728 320.5,245.5C 320.167,244.833 319.833,244.167 319.5,243.5C 322.058,238.441 324.391,233.274 326.5,228C 326.167,227.667 325.833,227.333 325.5,227C 328.924,220.976 330.757,214.476 331,207.5C 333.159,204.872 334.659,201.872 335.5,198.5C 336.167,198.833 336.833,199.167 337.5,199.5C 338.702,196.93 340.035,194.43 341.5,192C 340.268,186.269 340.935,180.436 343.5,174.5C 344.086,174.709 344.586,175.043 345,175.5C 345.496,173.965 345.33,172.465 344.5,171C 346.148,167.7 348.148,164.7 350.5,162C 349.264,160.915 347.931,160.082 346.5,159.5C 348.678,157.142 350.345,154.475 351.5,151.5C 353.262,151.643 354.929,151.309 356.5,150.5C 357.188,152.718 356.188,154.218 353.5,155C 354.563,156.188 355.897,156.688 357.5,156.5C 357.429,153.976 358.429,151.976 360.5,150.5C 360.167,149.833 359.833,149.167 359.5,148.5C 361.743,147.526 364.076,147.192 366.5,147.5C 366.5,148.5 366.5,149.5 366.5,150.5C 363.532,150.626 361.532,152.126 360.5,155C 361.167,158 361.833,161 362.5,164C 361.386,165.57 360.053,166.903 358.5,168C 361.043,170.351 360.377,171.517 356.5,171.5C 356.397,181.379 354.397,190.546 350.5,199C 351.939,199.991 352.939,201.324 353.5,203C 353.167,203.167 352.833,203.333 352.5,203.5C 351.833,202.5 351.167,201.5 350.5,200.5C 349.757,201.908 348.923,203.241 348,204.5C 347.03,211.412 344.696,217.745 341,223.5C 340.604,229.63 338.77,235.13 335.5,240C 335.98,243.58 334.98,246.913 332.5,250C 333.624,250.249 334.624,250.749 335.5,251.5C 330.313,252.926 328.646,256.093 330.5,261C 328.845,262.444 328.178,264.278 328.5,266.5 Z"/></g>
<g><path style="opacity:1" fill="#63ab6a" d="M 315.5,202.5 C 315.167,203.167 314.833,203.833 314.5,204.5C 314.15,207.71 312.65,208.71 310,207.5C 307.248,208.586 304.748,210.086 302.5,212C 296.487,213.172 290.82,215.006 285.5,217.5C 295.211,212.138 305.211,207.138 315.5,202.5 Z"/></g>
<g><path style="opacity:1" fill="#40a746" d="M 318.5,203.5 C 317.484,206.051 315.817,208.218 313.5,210C 313.833,210.333 314.167,210.667 314.5,211C 312.757,213.853 311.59,217.019 311,220.5C 309.506,219.253 308.006,219.253 306.5,220.5C 306.931,221.293 307.265,222.127 307.5,223C 305.737,224.654 305.404,226.487 306.5,228.5C 305.253,230.323 304.586,232.323 304.5,234.5C 303.178,234.67 302.011,234.337 301,233.5C 299.136,240.617 297.97,247.95 297.5,255.5C 295.667,256.052 294,256.885 292.5,258C 292.833,258.333 293.167,258.667 293.5,259C 292.572,259.388 291.905,260.055 291.5,261C 292.733,264.833 292.733,268.667 291.5,272.5C 289.202,273.898 288.536,275.731 289.5,278C 288.069,278.465 286.903,279.299 286,280.5C 283.468,287.392 281.468,294.059 280,300.5C 278.578,300.594 277.078,300.928 275.5,301.5C 277.274,302.187 278.941,303.02 280.5,304C 277.833,304.333 275.167,304.667 272.5,305C 276.635,306.431 280.968,306.931 285.5,306.5C 286.675,306.281 287.675,306.614 288.5,307.5C 277.52,308.499 266.52,308.832 255.5,308.5C 255.81,305.287 255.477,302.287 254.5,299.5C 254.5,295.167 254.5,290.833 254.5,286.5C 254.334,281.489 254.501,276.489 255,271.5C 256.016,270.366 256.683,270.699 257,272.5C 257.236,270.236 257.736,268.069 258.5,266C 255.283,259.651 256.283,253.984 261.5,249C 260.483,247.951 260.316,246.784 261,245.5C 263.199,241.103 265.365,236.769 267.5,232.5C 272.327,225.999 278.327,220.999 285.5,217.5C 290.82,215.006 296.487,213.172 302.5,212C 304.748,210.086 307.248,208.586 310,207.5C 312.65,208.71 314.15,207.71 314.5,204.5C 315.833,204.167 317.167,203.833 318.5,203.5 Z"/></g>
<g><path style="opacity:1" fill="#e68c8d" d="M 138.5,215.5 C 139.957,220.598 140.624,225.931 140.5,231.5C 139.043,226.402 138.376,221.069 138.5,215.5 Z"/></g>
<g><path style="opacity:1" fill="#c1221a" d="M 203.5,212.5 C 208.941,214.387 213.941,217.053 218.5,220.5C 216.909,223.352 215.576,226.352 214.5,229.5C 213.833,230.167 213.167,230.833 212.5,231.5C 212.67,230.178 212.337,229.011 211.5,228C 212.762,225.821 214.095,223.655 215.5,221.5C 213.5,220.667 211.5,219.833 209.5,219C 208.065,216.158 206.065,213.992 203.5,212.5 Z"/></g>
<g><path style="opacity:1" fill="#307638" d="M 218.5,220.5 C 219.391,221.11 220.391,221.443 221.5,221.5C 225.969,225.497 230.136,229.83 234,234.5C 237.2,239.186 239.7,244.186 241.5,249.5C 238.196,247.027 235.362,244.027 233,240.5C 232.751,241.624 232.251,242.624 231.5,243.5C 230.702,241.922 230.202,240.256 230,238.5C 225.97,233.972 222.137,229.306 218.5,224.5C 217.849,226.847 216.516,228.514 214.5,229.5C 215.576,226.352 216.909,223.352 218.5,220.5 Z"/></g>
<g><path style="opacity:1" fill="#34893c" d="M 241.5,249.5 C 243.31,252.145 244.31,255.145 244.5,258.5C 243.069,257.22 242.402,255.553 242.5,253.5C 239.436,253.856 236.769,253.023 234.5,251C 229.277,245.899 224.277,240.566 219.5,235C 218.216,234.316 217.049,234.483 216,235.5C 215.273,231.936 213.773,231.602 211.5,234.5C 211.557,233.391 211.89,232.391 212.5,231.5C 213.167,230.833 213.833,230.167 214.5,229.5C 216.516,228.514 217.849,226.847 218.5,224.5C 222.137,229.306 225.97,233.972 230,238.5C 230.202,240.256 230.702,241.922 231.5,243.5C 232.251,242.624 232.751,241.624 233,240.5C 235.362,244.027 238.196,247.027 241.5,249.5 Z"/></g>
<g><path style="opacity:1" fill="#41a847" d="M 245.5,283.5 C 245.5,284.167 245.5,284.833 245.5,285.5C 244.508,293.316 244.174,301.316 244.5,309.5C 227.5,309.5 210.5,309.5 193.5,309.5C 193.817,305.298 193.483,301.298 192.5,297.5C 192.289,290.867 190.289,284.867 186.5,279.5C 186.5,279.167 186.5,278.833 186.5,278.5C 190.801,271.187 195.135,263.854 199.5,256.5C 201.129,254.94 202.296,255.273 203,257.5C 204.841,255.841 206.008,253.841 206.5,251.5C 207.978,251.762 209.311,251.429 210.5,250.5C 209.376,249.086 208.376,247.586 207.5,246C 209.658,244.688 209.991,243.022 208.5,241C 209.653,239.117 211.319,238.284 213.5,238.5C 213.46,241.881 213.793,245.214 214.5,248.5C 216.451,248.227 217.951,248.893 219,250.5C 220.388,249.446 221.888,249.28 223.5,250C 226.256,253.966 229.756,257.133 234,259.5C 234.568,263.446 236.568,264.779 240,263.5C 241.338,264.506 242.671,265.506 244,266.5C 245.404,272.044 245.904,277.71 245.5,283.5 Z"/></g>
<g><path style="opacity:1" fill="#41a045" d="M 244.5,258.5 C 246,262.326 246.666,266.326 246.5,270.5C 246.818,275.032 246.485,279.366 245.5,283.5C 245.904,277.71 245.404,272.044 244,266.5C 242.671,265.506 241.338,264.506 240,263.5C 236.568,264.779 234.568,263.446 234,259.5C 229.756,257.133 226.256,253.966 223.5,250C 221.888,249.28 220.388,249.446 219,250.5C 217.951,248.893 216.451,248.227 214.5,248.5C 213.793,245.214 213.46,241.881 213.5,238.5C 211.319,238.284 209.653,239.117 208.5,241C 209.991,243.022 209.658,244.688 207.5,246C 208.376,247.586 209.376,249.086 210.5,250.5C 209.311,251.429 207.978,251.762 206.5,251.5C 206.008,253.841 204.841,255.841 203,257.5C 202.296,255.273 201.129,254.94 199.5,256.5C 203.01,248.807 207.01,241.474 211.5,234.5C 213.773,231.602 215.273,231.936 216,235.5C 217.049,234.483 218.216,234.316 219.5,235C 224.277,240.566 229.277,245.899 234.5,251C 236.769,253.023 239.436,253.856 242.5,253.5C 242.402,255.553 243.069,257.22 244.5,258.5 Z"/></g>
<g><path style="opacity:1" fill="#e73933" d="M 153.5,251.5 C 156.906,253.068 159.906,255.235 162.5,258C 163.793,258.49 165.127,258.657 166.5,258.5C 166.253,260.858 166.919,262.858 168.5,264.5C 162.931,260.873 157.931,256.54 153.5,251.5 Z"/></g>
<g><path style="opacity:1" fill="#e4524d" d="M 168.5,264.5 C 171.089,265.419 173.089,267.086 174.5,269.5C 171.911,268.581 169.911,266.914 168.5,264.5 Z"/></g>
<g><path style="opacity:1" fill="#51a958" d="M 267.5,232.5 C 265.365,236.769 263.199,241.103 261,245.5C 260.316,246.784 260.483,247.951 261.5,249C 256.283,253.984 255.283,259.651 258.5,266C 257.736,268.069 257.236,270.236 257,272.5C 256.683,270.699 256.016,270.366 255,271.5C 254.501,276.489 254.334,281.489 254.5,286.5C 253.509,279.687 253.175,272.687 253.5,265.5C 255.077,253.079 259.743,242.079 267.5,232.5 Z"/></g>
<g><path style="opacity:1" fill="#e35d5a" d="M 181.5,275.5 C 183.411,276.075 185.078,277.075 186.5,278.5C 186.5,278.833 186.5,279.167 186.5,279.5C 184.251,278.92 182.585,277.587 181.5,275.5 Z"/></g>
<g><path style="opacity:1" fill="#ddf3dd" d="M 246.5,270.5 C 247.164,272.81 247.497,275.31 247.5,278C 247.03,289.003 246.363,299.836 245.5,310.5C 245.5,302.167 245.5,293.833 245.5,285.5C 245.5,284.833 245.5,284.167 245.5,283.5C 246.485,279.366 246.818,275.032 246.5,270.5 Z"/></g>
<g><path style="opacity:1" fill="#c5edcc" d="M 253.5,265.5 C 253.175,272.687 253.509,279.687 254.5,286.5C 254.5,290.833 254.5,295.167 254.5,299.5C 254.5,302.833 254.5,306.167 254.5,309.5C 252.674,294.854 252.341,280.187 253.5,265.5 Z"/></g>
<g><path style="opacity:1" fill="#84c48e" d="M 245.5,285.5 C 245.5,293.833 245.5,302.167 245.5,310.5C 227.833,310.5 210.167,310.5 192.5,310.5C 192.5,306.167 192.5,301.833 192.5,297.5C 193.483,301.298 193.817,305.298 193.5,309.5C 210.5,309.5 227.5,309.5 244.5,309.5C 244.174,301.316 244.508,293.316 245.5,285.5 Z"/></g>
<g><path style="opacity:1" fill="#87bc90" d="M 306.5,299.5 C 306.5,303.167 306.5,306.833 306.5,310.5C 288.992,310.83 271.659,310.497 254.5,309.5C 271.5,309.5 288.5,309.5 305.5,309.5C 305.187,305.958 305.521,302.625 306.5,299.5 Z"/></g>
<g><path style="opacity:1" fill="#3f3c3d" d="M 168.5,335.5 C 170.167,335.5 171.833,335.5 173.5,335.5C 173.5,344.5 173.5,353.5 173.5,362.5C 171.234,362.859 169.401,362.192 168,360.5C 157.259,364.107 152.926,360.107 155,348.5C 158.141,341.924 162.475,340.924 168,345.5C 168.498,342.183 168.665,338.85 168.5,335.5 Z"/></g>
<g><path style="opacity:1" fill="#444142" d="M 178.5,335.5 C 180.199,335.34 181.866,335.506 183.5,336C 184.995,339.841 183.661,341.174 179.5,340C 178.62,338.644 178.286,337.144 178.5,335.5 Z"/></g>
<g><path style="opacity:1" fill="#959494" d="M 234.5,335.5 C 233.167,335.5 231.833,335.5 230.5,335.5C 230.5,343.5 230.5,351.5 230.5,359.5C 229.507,351.35 229.174,343.017 229.5,334.5C 231.415,334.216 233.081,334.549 234.5,335.5 Z"/></g>
<g><path style="opacity:1" fill="#373435" d="M 234.5,335.5 C 234.5,343.167 234.5,350.833 234.5,358.5C 235.5,358.5 236.5,358.5 237.5,358.5C 237.5,359.833 237.5,361.167 237.5,362.5C 234.369,363.092 232.036,362.092 230.5,359.5C 230.5,351.5 230.5,343.5 230.5,335.5C 231.833,335.5 233.167,335.5 234.5,335.5 Z"/></g>
<g><path style="opacity:1" fill="#454243" d="M 283.5,335.5 C 285.167,335.5 286.833,335.5 288.5,335.5C 288.985,340.159 287.152,341.492 283,339.5C 282.421,338.072 282.588,336.738 283.5,335.5 Z"/></g>
<g><path style="opacity:1" fill="#3a3738" d="M 329.5,335.5 C 331.167,335.5 332.833,335.5 334.5,335.5C 335.169,339.676 333.669,341.009 330,339.5C 329.51,338.207 329.343,336.873 329.5,335.5 Z"/></g>
<g><path style="opacity:1" fill="#3e3b3c" d="M 121.5,337.5 C 123.5,337.5 125.5,337.5 127.5,337.5C 127.5,345.833 127.5,354.167 127.5,362.5C 126.167,362.5 124.833,362.5 123.5,362.5C 123.666,356.824 123.499,351.157 123,345.5C 120.66,351.019 118.827,356.686 117.5,362.5C 115.833,362.5 114.167,362.5 112.5,362.5C 110.974,357.09 109.141,351.756 107,346.5C 106.501,351.823 106.334,357.156 106.5,362.5C 104.833,362.5 103.167,362.5 101.5,362.5C 101.5,353.833 101.5,345.167 101.5,336.5C 103.924,336.192 106.257,336.526 108.5,337.5C 110.945,343.392 113.112,349.392 115,355.5C 117.274,349.51 119.44,343.51 121.5,337.5 Z"/></g>
<g><path style="opacity:1" fill="#656364" d="M 121.5,337.5 C 123.607,336.532 125.941,336.198 128.5,336.5C 128.826,345.349 128.493,354.016 127.5,362.5C 127.5,354.167 127.5,345.833 127.5,337.5C 125.5,337.5 123.5,337.5 121.5,337.5 Z"/></g>
<g><path style="opacity:1" fill="#3b3839" d="M 272.5,362.5 C 272.666,356.824 272.499,351.157 272,345.5C 270.961,346.244 270.461,347.244 270.5,348.5C 268.91,352.768 267.41,357.101 266,361.5C 263.978,362.991 262.312,362.658 261,360.5C 259.486,356.146 257.986,351.812 256.5,347.5C 256.217,346.711 255.717,346.044 255,345.5C 254.501,351.157 254.334,356.824 254.5,362.5C 253.167,362.5 251.833,362.5 250.5,362.5C 250.5,353.833 250.5,345.167 250.5,336.5C 252.924,336.192 255.257,336.526 257.5,337.5C 259.568,343.538 261.735,349.538 264,355.5C 266,349.5 268,343.5 270,337.5C 272.041,336.577 274.208,336.244 276.5,336.5C 276.5,345.167 276.5,353.833 276.5,362.5C 275.167,362.5 273.833,362.5 272.5,362.5 Z"/></g>
<g><path style="opacity:1" fill="#3f3c3d" d="M 150.5,347.5 C 150.5,349.5 150.5,351.5 150.5,353.5C 146.298,353.183 142.298,353.517 138.5,354.5C 138.511,356.017 139.177,357.184 140.5,358C 143.707,358.415 146.707,358.082 149.5,357C 150.5,359.091 149.833,360.757 147.5,362C 135.851,364.015 131.351,359.182 134,347.5C 139.673,340.843 145.173,340.843 150.5,347.5 Z"/></g>
<g><path style="opacity:1" fill="#7c7a7b" d="M 183.5,343.5 C 182.167,343.5 180.833,343.5 179.5,343.5C 179.5,349.833 179.5,356.167 179.5,362.5C 178.509,356.021 178.176,349.354 178.5,342.5C 180.415,342.216 182.081,342.549 183.5,343.5 Z"/></g>
<g><path style="opacity:1" fill="#363434" d="M 183.5,343.5 C 183.5,349.833 183.5,356.167 183.5,362.5C 182.167,362.5 180.833,362.5 179.5,362.5C 179.5,356.167 179.5,349.833 179.5,343.5C 180.833,343.5 182.167,343.5 183.5,343.5 Z"/></g>
<g><path style="opacity:1" fill="#403d3e" d="M 194.5,342.5 C 198.981,341.88 202.648,343.213 205.5,346.5C 204.833,347.833 203.833,348.833 202.5,349.5C 199.915,346.136 197.082,345.803 194,348.5C 192.996,351.993 193.496,355.159 195.5,358C 198.579,359.09 200.912,358.257 202.5,355.5C 206.274,357.439 206.274,359.605 202.5,362C 191.355,364.188 186.855,359.688 189,348.5C 190.36,345.977 192.193,343.977 194.5,342.5 Z"/></g>
<g><path style="opacity:1" fill="#423f40" d="M 213.5,342.5 C 216.93,342.107 220.096,342.773 223,344.5C 224.059,350.522 225.226,356.522 226.5,362.5C 223.843,362.838 221.51,362.171 219.5,360.5C 211.093,364.913 207.76,362.58 209.5,353.5C 213.04,352.127 216.373,350.46 219.5,348.5C 216.454,345.734 213.621,346.067 211,349.5C 210.056,348.737 209.556,347.737 209.5,346.5C 210.437,344.712 211.77,343.379 213.5,342.5 Z"/></g>
<g><path style="opacity:1" fill="#363434" d="M 283.5,343.5 C 284.833,343.5 286.167,343.5 287.5,343.5C 287.5,349.833 287.5,356.167 287.5,362.5C 286.167,362.5 284.833,362.5 283.5,362.5C 283.5,356.167 283.5,349.833 283.5,343.5 Z"/></g>
<g><path style="opacity:1" fill="#797777" d="M 283.5,343.5 C 284.919,342.549 286.585,342.216 288.5,342.5C 288.824,349.354 288.491,356.021 287.5,362.5C 287.5,356.167 287.5,349.833 287.5,343.5C 286.167,343.5 284.833,343.5 283.5,343.5 Z"/></g>
<g><path style="opacity:1" fill="#423f40" d="M 296.5,342.5 C 298.857,342.337 301.19,342.503 303.5,343C 307.132,344.373 307.299,345.873 304,347.5C 301.901,346.713 299.734,346.38 297.5,346.5C 297.33,347.822 297.663,348.989 298.5,350C 307.802,350.673 309.802,354.673 304.5,362C 301.5,362.667 298.5,362.667 295.5,362C 291.956,360.747 291.623,358.913 294.5,356.5C 296.851,358.229 299.518,358.896 302.5,358.5C 301.923,355.355 299.923,353.855 296.5,354C 291.248,350.173 291.248,346.34 296.5,342.5 Z"/></g>
<g><path style="opacity:1" fill="#423f40" d="M 314.5,342.5 C 316.857,342.337 319.19,342.503 321.5,343C 325.132,344.373 325.299,345.873 322,347.5C 319.901,346.713 317.734,346.38 315.5,346.5C 315.33,347.822 315.663,348.989 316.5,350C 325.802,350.673 327.802,354.673 322.5,362C 319.5,362.667 316.5,362.667 313.5,362C 309.956,360.747 309.623,358.913 312.5,356.5C 314.851,358.229 317.518,358.896 320.5,358.5C 319.923,355.355 317.923,353.855 314.5,354C 309.248,350.173 309.248,346.34 314.5,342.5 Z"/></g>
<g><path style="opacity:1" fill="#3a3738" d="M 329.5,343.5 C 331.167,343.5 332.833,343.5 334.5,343.5C 334.5,349.833 334.5,356.167 334.5,362.5C 332.833,362.5 331.167,362.5 329.5,362.5C 329.5,356.167 329.5,349.833 329.5,343.5 Z"/></g>
<g><path style="opacity:1" fill="#403d3e" d="M 344.5,342.5 C 356.107,342.053 360.273,347.386 357,358.5C 353.604,362.203 349.437,363.369 344.5,362C 342.333,361.167 340.833,359.667 340,357.5C 338.254,351.342 339.754,346.342 344.5,342.5 Z"/></g>
<g><path style="opacity:1" fill="#7c7a7b" d="M 367.5,343.5 C 366.167,343.5 364.833,343.5 363.5,343.5C 363.5,349.833 363.5,356.167 363.5,362.5C 362.509,356.021 362.176,349.354 362.5,342.5C 364.415,342.216 366.081,342.549 367.5,343.5 Z"/></g>
<g><path style="opacity:1" fill="#3c3a3a" d="M 363.5,362.5 C 363.5,356.167 363.5,349.833 363.5,343.5C 364.833,343.5 366.167,343.5 367.5,343.5C 367.369,344.239 367.536,344.906 368,345.5C 371.397,342.019 375.064,341.686 379,344.5C 380.41,350.379 380.91,356.379 380.5,362.5C 378.833,362.5 377.167,362.5 375.5,362.5C 375.827,357.456 375.494,352.456 374.5,347.5C 371.755,346.025 369.588,346.691 368,349.5C 367.501,353.821 367.334,358.154 367.5,362.5C 366.167,362.5 364.833,362.5 363.5,362.5 Z"/></g>
<g><path style="opacity:1" fill="#423f40" d="M 388.5,342.5 C 390.857,342.337 393.19,342.503 395.5,343C 399.132,344.373 399.299,345.873 396,347.5C 393.901,346.713 391.734,346.38 389.5,346.5C 389.33,347.822 389.663,348.989 390.5,350C 399.802,350.673 401.802,354.673 396.5,362C 393.5,362.667 390.5,362.667 387.5,362C 383.956,360.747 383.623,358.913 386.5,356.5C 388.851,358.229 391.518,358.896 394.5,358.5C 393.923,355.355 391.923,353.855 388.5,354C 383.248,350.173 383.248,346.34 388.5,342.5 Z"/></g>
<g><path style="opacity:1" fill="#919090" d="M 256.5,347.5 C 255.833,352.5 255.167,357.5 254.5,362.5C 254.334,356.824 254.501,351.157 255,345.5C 255.717,346.044 256.217,346.711 256.5,347.5 Z"/></g>
<g><path style="opacity:1" fill="#f4f4f4" d="M 140.5,346.5 C 143.969,345.887 145.969,347.221 146.5,350.5C 143.753,350.813 141.086,350.48 138.5,349.5C 139.193,348.482 139.859,347.482 140.5,346.5 Z"/></g>
<g><path style="opacity:1" fill="#b2b1b2" d="M 272.5,362.5 C 271.833,357.833 271.167,353.167 270.5,348.5C 270.461,347.244 270.961,346.244 272,345.5C 272.499,351.157 272.666,356.824 272.5,362.5 Z"/></g>
<g><path style="opacity:1" fill="#f3f3f3" d="M 162.5,346.5 C 167.85,347.184 169.684,350.184 168,355.5C 165.822,359.065 163.156,359.399 160,356.5C 158.863,352.537 159.697,349.204 162.5,346.5 Z"/></g>
<g><path style="opacity:1" fill="#f1f1f1" d="M 346.5,346.5 C 353.698,347.699 355.365,351.532 351.5,358C 348.937,358.918 346.77,358.418 345,356.5C 344.037,352.851 344.537,349.518 346.5,346.5 Z"/></g>
<g><path style="opacity:1" fill="#a8a7a8" d="M 150.5,347.5 C 151.468,349.607 151.802,351.941 151.5,354.5C 147.167,354.5 142.833,354.5 138.5,354.5C 142.298,353.517 146.298,353.183 150.5,353.5C 150.5,351.5 150.5,349.5 150.5,347.5 Z"/></g>
<g><path style="opacity:1" fill="#f1f1f1" d="M 216.5,353.5 C 217.5,353.5 218.5,353.5 219.5,353.5C 219.859,357.987 218.026,359.654 214,358.5C 213.51,357.207 213.343,355.873 213.5,354.5C 214.791,354.737 215.791,354.404 216.5,353.5 Z"/></g>
<g><path style="opacity:1" fill="#35a54d" d="M 244.5,375.5 C 245.5,375.5 246.5,375.5 247.5,375.5C 247.5,382.5 247.5,389.5 247.5,396.5C 246.5,396.5 245.5,396.5 244.5,396.5C 244.5,389.5 244.5,382.5 244.5,375.5 Z"/></g>
<g><path style="opacity:1" fill="#46ab59" d="M 116.5,375.5 C 120.122,374.924 123.122,375.924 125.5,378.5C 125.113,379.72 124.28,380.387 123,380.5C 118.798,378.607 115.465,379.607 113,383.5C 112.176,390.512 115.343,393.845 122.5,393.5C 122.5,392.167 122.5,390.833 122.5,389.5C 119.5,389.833 118.167,388.5 118.5,385.5C 121.167,385.5 123.833,385.5 126.5,385.5C 127.751,395.894 123.417,399.061 113.5,395C 106.284,387.245 107.284,380.745 116.5,375.5 Z"/></g>
<g><path style="opacity:1" fill="#45aa58" d="M 188.5,376.5 C 189.822,376.33 190.989,376.663 192,377.5C 192.497,379.81 192.663,382.143 192.5,384.5C 195.5,384.5 198.5,384.5 201.5,384.5C 201.5,381.833 201.5,379.167 201.5,376.5C 202.5,376.5 203.5,376.5 204.5,376.5C 204.5,383.167 204.5,389.833 204.5,396.5C 203.5,396.5 202.5,396.5 201.5,396.5C 201.5,393.833 201.5,391.167 201.5,388.5C 198.5,388.5 195.5,388.5 192.5,388.5C 192.663,390.857 192.497,393.19 192,395.5C 190.989,396.337 189.822,396.67 188.5,396.5C 188.5,389.833 188.5,383.167 188.5,376.5 Z"/></g>
<g><path style="opacity:1" fill="#49ac5c" d="M 289.5,376.5 C 290.552,376.351 291.552,376.517 292.5,377C 293.949,380.273 295.949,383.106 298.5,385.5C 300.992,382.837 303.326,380.004 305.5,377C 306.448,376.517 307.448,376.351 308.5,376.5C 308.666,382.842 308.5,389.175 308,395.5C 307,396.833 306,396.833 305,395.5C 304.667,391.833 304.333,388.167 304,384.5C 302.327,387.001 300.493,389.334 298.5,391.5C 296.507,389.334 294.673,387.001 293,384.5C 292.667,388.167 292.333,391.833 292,395.5C 291,396.833 290,396.833 289,395.5C 288.21,389.085 288.376,382.752 289.5,376.5 Z"/></g>
<g><path style="opacity:1" fill="#54b164" d="M 312.5,375.5 C 313.5,375.5 314.5,375.5 315.5,375.5C 315.5,376.833 315.5,378.167 315.5,379.5C 314.5,379.5 313.5,379.5 312.5,379.5C 312.5,378.167 312.5,376.833 312.5,375.5 Z"/></g>
<g><path style="opacity:1" fill="#57b267" d="M 347.5,375.5 C 348.5,375.5 349.5,375.5 350.5,375.5C 350.426,379.541 349.093,380.208 346.5,377.5C 346.863,376.817 347.196,376.15 347.5,375.5 Z"/></g>
<g><path style="opacity:1" fill="#3ea853" d="M 253.5,377.5 C 254.5,377.5 255.5,377.5 256.5,377.5C 256.5,378.833 256.5,380.167 256.5,381.5C 257.978,381.238 259.311,381.571 260.5,382.5C 259.68,384.111 258.346,384.778 256.5,384.5C 256.5,387.5 256.5,390.5 256.5,393.5C 261.623,393.899 261.79,394.899 257,396.5C 255.893,396.415 254.893,396.081 254,395.5C 253.501,391.848 253.335,388.182 253.5,384.5C 252.5,384.5 251.5,384.5 250.5,384.5C 250.5,383.5 250.5,382.5 250.5,381.5C 251.5,381.5 252.5,381.5 253.5,381.5C 253.5,380.167 253.5,378.833 253.5,377.5 Z"/></g>
<g><path style="opacity:1" fill="#47ab5a" d="M 133.5,380.5 C 137.158,381.039 140.658,381.373 144,381.5C 144.802,386.419 144.635,391.252 143.5,396C 141.095,395.562 138.595,395.729 136,396.5C 133.966,396.646 132.299,395.98 131,394.5C 128.418,389.12 129.251,384.453 133.5,380.5 Z"/></g>
<g><path style="opacity:1" fill="#41a955" d="M 147.5,381.5 C 151.5,381.5 155.5,381.5 159.5,381.5C 159.649,382.552 159.483,383.552 159,384.5C 156.594,386.983 154.427,389.65 152.5,392.5C 154.743,393.474 157.076,393.808 159.5,393.5C 159.5,394.5 159.5,395.5 159.5,396.5C 155.486,396.666 151.486,396.499 147.5,396C 146.549,395.282 146.383,394.449 147,393.5C 149.406,391.017 151.573,388.35 153.5,385.5C 151.604,384.534 149.604,384.201 147.5,384.5C 147.5,383.5 147.5,382.5 147.5,381.5 Z"/></g>
<g><path style="opacity:1" fill="#47ab5a" d="M 165.5,380.5 C 169.158,381.039 172.658,381.373 176,381.5C 176.802,386.419 176.635,391.252 175.5,396C 173.095,395.562 170.595,395.729 168,396.5C 165.966,396.646 164.299,395.98 163,394.5C 160.418,389.12 161.251,384.453 165.5,380.5 Z"/></g>
<g><path style="opacity:1" fill="#3fa854" d="M 221.5,389.5 C 218.102,389.18 214.768,389.513 211.5,390.5C 211.624,391.107 211.957,391.44 212.5,391.5C 213.134,392.947 214.301,393.613 216,393.5C 217.825,393.057 219.658,392.723 221.5,392.5C 221.64,394.124 220.973,395.29 219.5,396C 210.21,397.622 206.71,393.789 209,384.5C 213.251,379.274 217.585,379.274 222,384.5C 222.78,386.387 222.613,388.054 221.5,389.5 Z"/></g>
<g><path style="opacity:1" fill="#47ab5a" d="M 229.5,380.5 C 233.158,381.039 236.658,381.373 240,381.5C 240.802,386.419 240.635,391.252 239.5,396C 237.095,395.562 234.595,395.729 232,396.5C 229.966,396.646 228.299,395.98 227,394.5C 224.418,389.12 225.251,384.453 229.5,380.5 Z"/></g>
<g><path style="opacity:1" fill="#48ac5b" d="M 263.5,375.5 C 264.833,375.5 266.167,375.5 267.5,375.5C 267.337,377.857 267.503,380.19 268,382.5C 270.667,379.833 273.333,379.833 276,382.5C 276.499,387.155 276.666,391.821 276.5,396.5C 275.5,396.5 274.5,396.5 273.5,396.5C 273.665,392.818 273.499,389.152 273,385.5C 271.333,384.167 269.667,384.167 268,385.5C 267.667,388.833 267.333,392.167 267,395.5C 266,396.833 265,396.833 264,395.5C 263.5,388.842 263.334,382.175 263.5,375.5 Z"/></g>
<g><path style="opacity:1" fill="#36a54d" d="M 312.5,381.5 C 313.5,381.5 314.5,381.5 315.5,381.5C 315.5,386.5 315.5,391.5 315.5,396.5C 314.5,396.5 313.5,396.5 312.5,396.5C 312.5,391.5 312.5,386.5 312.5,381.5 Z"/></g>
<g><path style="opacity:1" fill="#49ac5c" d="M 321.5,380.5 C 324.272,380.22 326.772,380.887 329,382.5C 329.749,383.635 329.583,384.635 328.5,385.5C 326.827,383.914 324.827,383.247 322.5,383.5C 322.433,386.766 324.099,388.266 327.5,388C 331.476,390.716 331.476,393.383 327.5,396C 324.331,396.978 321.497,396.478 319,394.5C 318.251,393.365 318.417,392.365 319.5,391.5C 321.51,393.171 323.843,393.838 326.5,393.5C 326.5,392.5 326.5,391.5 326.5,390.5C 318.338,390.058 316.672,386.725 321.5,380.5 Z"/></g>
<g><path style="opacity:1" fill="#49ac5c" d="M 335.5,380.5 C 338.272,380.22 340.772,380.887 343,382.5C 343.749,383.635 343.583,384.635 342.5,385.5C 340.827,383.914 338.827,383.247 336.5,383.5C 336.433,386.766 338.099,388.266 341.5,388C 345.476,390.716 345.476,393.383 341.5,396C 338.331,396.978 335.497,396.478 333,394.5C 332.251,393.365 332.417,392.365 333.5,391.5C 335.51,393.171 337.843,393.838 340.5,393.5C 340.5,392.5 340.5,391.5 340.5,390.5C 332.338,390.058 330.672,386.725 335.5,380.5 Z"/></g>
<g><path style="opacity:1" fill="#4bad5d" d="M 346.5,381.5 C 347.833,381.5 349.167,381.5 350.5,381.5C 350.666,386.179 350.499,390.845 350,395.5C 349,396.833 348,396.833 347,395.5C 346.501,390.845 346.334,386.179 346.5,381.5 Z"/></g>
<g><path style="opacity:1" fill="#41a956" d="M 358.5,380.5 C 366.696,380.529 369.863,384.529 368,392.5C 363.428,397.812 358.761,397.812 354,392.5C 352.474,387.239 353.974,383.239 358.5,380.5 Z"/></g>
<g><path style="opacity:1" fill="#4dae5f" d="M 378.5,380.5 C 381.325,380.081 383.491,381.081 385,383.5C 385.667,387.5 385.667,391.5 385,395.5C 384,396.833 383,396.833 382,395.5C 381.501,391.848 381.335,388.182 381.5,384.5C 379.533,384.261 377.699,384.594 376,385.5C 375.667,388.833 375.333,392.167 375,395.5C 374,396.833 373,396.833 372,395.5C 371.501,390.845 371.334,386.179 371.5,381.5C 373.144,381.286 374.644,381.62 376,382.5C 376.995,381.934 377.828,381.267 378.5,380.5 Z"/></g>
<g><path style="opacity:1" fill="#49ac5c" d="M 391.5,380.5 C 394.272,380.22 396.772,380.887 399,382.5C 399.749,383.635 399.583,384.635 398.5,385.5C 396.827,383.914 394.827,383.247 392.5,383.5C 392.433,386.766 394.099,388.266 397.5,388C 401.476,390.716 401.476,393.383 397.5,396C 394.331,396.978 391.497,396.478 389,394.5C 388.251,393.365 388.417,392.365 389.5,391.5C 391.51,393.171 393.843,393.838 396.5,393.5C 396.5,392.5 396.5,391.5 396.5,390.5C 388.338,390.058 386.672,386.725 391.5,380.5 Z"/></g>
<g><path style="opacity:1" fill="#f8fcf9" d="M 133.5,384.5 C 140.676,383.985 142.342,386.818 138.5,393C 136.299,393.825 134.466,393.325 133,391.5C 132.444,389.115 132.61,386.782 133.5,384.5 Z"/></g>
<g><path style="opacity:1" fill="#f8fcf9" d="M 165.5,384.5 C 172.676,383.985 174.342,386.818 170.5,393C 168.299,393.825 166.466,393.325 165,391.5C 164.444,389.115 164.61,386.782 165.5,384.5 Z"/></g>
<g><path style="opacity:1" fill="#f5faf6" d="M 218.5,385.5 C 216.5,386.833 214.5,386.833 212.5,385.5C 214.5,384.167 216.5,384.167 218.5,385.5 Z"/></g>
<g><path style="opacity:1" fill="#f8fcf9" d="M 229.5,384.5 C 236.676,383.985 238.342,386.818 234.5,393C 232.299,393.825 230.466,393.325 229,391.5C 228.444,389.115 228.61,386.782 229.5,384.5 Z"/></g>
<g><path style="opacity:1" fill="#f4faf5" d="M 358.5,384.5 C 365.486,384.331 367.153,387.164 363.5,393C 356.808,393.116 355.141,390.282 358.5,384.5 Z"/></g>
<g><path style="opacity:1" fill="#95cfa1" d="M 212.5,385.5 C 214.5,386.833 216.5,386.833 218.5,385.5C 219.043,385.56 219.376,385.893 219.5,386.5C 216.833,387.833 214.167,387.833 211.5,386.5C 211.624,385.893 211.957,385.56 212.5,385.5 Z"/></g>
<g><path style="opacity:1" fill="#9ed3aa" d="M 221.5,389.5 C 218.5,390.167 215.5,390.833 212.5,391.5C 211.957,391.44 211.624,391.107 211.5,390.5C 214.768,389.513 218.102,389.18 221.5,389.5 Z"/></g>
</svg>
